inDegrees=yes
name=ik_appendData_table_pitch
DataType=double
version=3
OpenSimVersion=4.5
endheader
time	pelvis_tilt	pelvis_list	pelvis_rotation	pelvis_tx	pelvis_ty	pelvis_tz	hip_flexion_r	hip_adduction_r	hip_rotation_r	knee_angle_r	knee_angle_r_beta	ankle_angle_r	subtalar_angle_r	mtp_angle_r	hip_flexion_l	hip_adduction_l	hip_rotation_l	knee_angle_l	knee_angle_l_beta	ankle_angle_l	subtalar_angle_l	mtp_angle_l	lumbar_extension	lumbar_bending	lumbar_rotation	arm_flex_r	arm_add_r	arm_rot_r	elbow_flex_r	pro_sup_r	wrist_flex_r	wrist_dev_r	arm_flex_l	arm_add_l	arm_rot_l	elbow_flex_l	pro_sup_l	wrist_flex_l	wrist_dev_l
25	-1.71591093248175	89.69837887041788	-2.784402365769965	0	0.9399999999999999	0	44.5964926616255	-10.04950488812686	0	59.94674783303896	1.046268125549306	-5.006778585511912	0	0	44.5964926616255	-10.04950488812686	0	59.94674783303896	1.046268125549306	-5.006778585511912	0	0	-0.006732686335469324	0.276027965670013	3.3787186423295	0	-12.36402161694151	0	76.15574665001964	44.92763615810365	0	0	46.67369128636103	-2.131154461317892	-0.3753720308157529	0.002642440028101687	44.92763615810365	0	0
26	-2.036862854146412	89.69130549102969	-2.706337099644302	0	0.9399999999999999	0	44.60780812734627	-10.04495370448383	0	59.94794304496542	1.046288985932682	-5.005985807196759	0	0	44.60780812734627	-10.04495370448383	0	59.94794304496542	1.046288985932682	-5.005985807196759	0	0	-0.0003740235257778827	0.2949303659295647	3.600698997044249	0	-12.40252988455685	0	76.12333526328668	44.93299177190769	0	0	45.07288392193151	-1.840193304316031	0.1451042459090238	0.002736076576157276	44.93299177190769	0	0
27	-1.889287111735014	89.69180008148194	-2.844970789278304	0	0.9399999999999999	0	44.61253596557642	-10.04346016716129	0	59.94848580658208	1.046298458909946	-5.005742556393015	0	0	44.61253596557642	-10.04346016716129	0	59.94848580658208	1.046298458909946	-5.005742556393015	0	0	-3.061334228065501e-05	0.2960089592049752	3.598011977548339	0	-12.42007213272934	0	76.109794035699	44.93484816654308	0	2.7400128467443e-52	42.22261342169466	-1.757108515879871	0.1257509427359878	0.002920109298968619	44.93484816654308	0	2.7400128467443e-52
28	-2.397204706463962	89.70176306573134	-3.464116874455342	0	0.9399999999999999	0	44.62097519067147	-10.04078410742534	0	59.94945230661007	1.046315327517655	-5.005308254048799	0	0	44.62097519067147	-10.04078410742534	0	59.94945230661007	1.046315327517655	-5.005308254048799	0	0	-0.00343903775533001	0.2881974909308725	4.721887159694689	0	-12.4512445206607	0	76.08562264177034	44.93817776035583	0	0	38.1080795146876	-1.43631198776903	0.6567774621763814	0.003235612242710054	44.93817776035583	0	0
29	-2.36629047390901	89.70533789547839	-3.497776762521732	0	0.9399999999999999	0	44.62889739804884	-10.03840896412232	0	59.95037267066262	1.046331390900689	-5.004929367530559	0	0	44.62889739804884	-10.03840896412232	0	59.95037267066262	1.046331390900689	-5.004929367530559	0	0	-0.002372561283023562	0.2787337789137005	4.724979067286821	0	-12.48103114536287	0	76.06293239473122	44.94117296432754	0	0	33.6603861168855	-0.5905370495264292	0.9992621443923273	0.003646838761874411	44.94117296432754	0	0
30	-2.430238000434663	89.70196110079549	-3.42991422584001	0	0.9399999999999999	0	44.63692830749246	-10.03592077580274	0	59.95129323961989	1.046347457859985	-5.004530120172755	0	0	44.63692830749246	-10.03592077580274	0	59.95129323961989	1.046347457859985	-5.004530120172755	0	0	-0.001731406161041395	0.2875133970805369	4.718605579321352	0	-12.51084196870418	0	76.03993061461732	44.94429120933061	0	0	29.83404459657357	0.2212067136297036	1.403337055202547	0.004092191387520221	44.94429120933061	0	0
31	-2.468090457247489	89.70157828867615	-3.390564125474362	0	0.9399999999999999	0	44.64506193593519	-10.0334199260542	0	59.95222622201774	1.04636374147469	-5.004130952491802	0	0	44.64506193593519	-10.0334199260542	0	59.95222622201774	1.04636374147469	-5.004130952491802	0	0	-0.00694484969370498	0.2841188245911739	4.716318198462377	0	-12.54104655973696	0	76.01663464976436	44.94743485265532	0	0	25.99219592973038	0.5378622465069379	0.1393117722882826	0.004675722984398595	44.94743485265532	0	0
32	-2.591661322626624	89.70315533620683	-3.271404155172166	0	0.9399999999999999	0	44.6531751860185	-10.03122820843816	0	59.95316294465221	1.04638009036884	-5.003796765248881	0	0	44.6531751860185	-10.03122820843816	0	59.95316294465221	1.04638009036884	-5.003796765248881	0	0	-0.0003964769573971764	0.288794163661118	4.727573449197457	0	-12.57204112824362	0	75.99339762093874	44.95028644761411	0	0	21.63211390544333	1.086800386219353	-0.4996074301256498	0.005578184628531949	44.95028644761411	0	0
33	-2.851418664748067	89.70502597135584	-3.009304564274065	0	0.9399999999999999	0	44.66295843337488	-10.02876774684457	0	59.95430113761892	1.046399955583632	-5.003430358366306	0	0	44.66295843337488	-10.02876774684457	0	59.95430113761892	1.046399955583632	-5.003430358366306	0	0	1.139638316117511	0.3198804095391405	4.72865574987132	0	-12.61013448233916	0	75.96537792864778	44.95354596234708	0	0	15.76167321396097	1.085621581908312	-0.9602773768768703	0.007107117071599871	44.95354596234708	0	0
34	-3.177852352912728	89.71296872804086	-3.797689086386216	0	0.9399999999999999	0	44.67114428520874	-10.02693259528926	0	59.95527809637186	1.046417006730527	-5.003164960410594	0	0	44.67114428520874	-10.02693259528926	0	59.95527809637186	1.046417006730527	-5.003164960410594	0	0	1.136419121388523	0.3358618558827092	5.83972055645082	0	-12.64327605378304	0	75.9419338279932	44.95603886573855	0	0	10.43133016554217	0.6194185369110299	-1.361123001833796	0.01039359157509734	44.95603886573855	0	0
35	-3.192796663325873	89.71106286872778	-3.779137669797284	0	0.9399999999999999	0	44.67389031807097	-10.02642091256099	0	59.95565271158284	1.046423544999387	-5.003094420827526	0	0	44.67389031807097	-10.02642091256099	0	59.95565271158284	1.046423544999387	-5.003094420827526	0	0	1.13488325065993	0.3411997308911376	5.83140750077134	0	-12.65539689269641	0	75.93406949138173	44.9567611065224	0	0	5.717986780673006	0.2782303862811538	-0.661085704923024	0.01751104884134153	44.9567611065224	0	0
36	-3.210909680621217	89.70760508752191	-3.755768320708606	0	0.9399999999999999	0	44.67707425056943	-10.02583224047705	0	59.95608454148451	1.046431081852979	-5.003013596732223	0	0	44.67707425056943	-10.02583224047705	0	59.95608454148451	1.046431081852979	-5.003013596732223	0	0	1.143980788573411	0.3602494965229916	5.828822776622793	0	-12.66945510370628	0	75.92495105932207	44.9575942340621	0	0	0.5106862600151609	-0.6435520093896353	0.02515924186127359	0.07413184768076951	44.9575942340621	0	0
37	-3.21076431624227	89.70847518409319	-3.760602083587854	0	0.9399999999999999	0	44.67722574153517	-10.02579003163812	0	59.95610078098478	1.046431365285728	-5.003007179800191	0	0	44.67722574153517	-10.02579003163812	0	59.95610078098478	1.046431365285728	-5.003007179800191	0	0	1.137885399729759	0.3353055021720678	5.837352299433061	0	-12.67001556001347	0	75.92451717369985	44.95764908657043	0	0	-0.764333881520449	-1.789747024367677	0.6386829960933031	0.3292882510145452	44.95764908657043	0	0
38	-3.208454654482323	89.71152099181045	-3.767363492284693	0	0.9399999999999999	0	44.67732433384802	-10.02576266682559	0	59.95611138854903	1.04643155042265	-5.003003022028678	0	0	44.67732433384802	-10.02576266682559	0	59.95611138854903	1.04643155042265	-5.003003022028678	0	0	1.134588099417506	0.3399271440984984	5.838580078950975	0	-12.67038129073495	0	75.92423479552176	44.95768466922846	0	0	-0.07831530266486754	-1.201596816176804	0.6190414674041768	0.1247597652621526	44.95768466922846	0	0
39	-3.207011233587512	89.71282430152002	-3.768089172287979	0	0.9399999999999999	0	44.67743905523012	-10.02573062402076	0	59.95612366106204	1.046431764618409	-5.0029981486209	0	0	44.67743905523012	-10.02573062402076	0	59.95612366106204	1.046431764618409	-5.0029981486209	0	0	1.13372169608388	0.3356423865865934	5.839472931785067	0	-12.67080516679575	0	75.9239062216086	44.95772629294561	0	0	-0.713095757277901	-1.20422356611485	0.6179946816401287	0.254004912850289	44.95772629294561	0	0
40	-3.206698364682156	89.70362213969875	-3.769943666985218	0	0.9399999999999999	0	44.67747549094674	-10.02572044727836	0	59.9561275551395	1.046431832582882	-5.002996601292914	0	0	44.67747549094674	-10.02572044727836	0	59.9561275551395	1.046431832582882	-5.002996601292914	0	0	1.146921473134928	0.3838487259441078	5.837782996241024	0	-12.67093971357919	0	75.92380186593027	44.95773951464425	0	0	-0.7387638989574117	-1.157148680143375	0.6170680597986972	0.2594596537965663	44.95773951464425	0	0
